# Blender v2.79 (sub 0) OBJ File: 'door.blend'
# www.blender.org
mtllib door.mtl
o Cube
v -0.004193 -0.814482 -0.992749
v 0.000000 -1.000000 -1.000000
v 0.493711 -0.817329 -0.989124
v 0.500000 -1.000000 -1.000000
v -0.502096 -0.811634 -0.996375
v -0.500000 -1.000000 -1.000000
v -0.496830 -0.811578 -0.000108
v -0.500000 -1.000000 -0.000000
v 0.500000 -1.000000 0.500000
v -0.500000 -1.000000 0.500000
v -0.494197 -0.811549 0.498025
v 0.517408 -0.814195 0.494076
vt 0.000073 0.225880
vt 0.132998 0.225890
vt 0.133025 0.275989
vt 0.000594 0.276003
vt 0.322347 0.225733
vt 0.322347 0.118114
vt 0.151957 0.176265
vt 0.000073 0.136594
vt 0.398847 0.225880
vt 0.397885 0.275960
vt 0.133832 0.276878
vt 0.266754 0.277597
vt 0.264819 0.326236
vt 0.132446 0.326229
vt 0.000073 0.326232
vt 0.000909 0.276150
vt 0.672823 0.108326
vt 0.675629 0.000073
vt 0.999927 0.090557
vt 0.846493 0.051416
vn 0.9997 -0.0238 -0.0026
vn -0.0020 -0.0210 -0.9998
vn 1.0000 -0.0028 -0.0026
vn -0.0038 -0.0493 0.9988
vn -0.0037 -0.0291 0.9996
vn -0.9995 0.0301 0.0079
vn 0.9999 -0.0098 -0.0026
vn -0.0037 -0.0391 0.9992
vn -0.0042 -1.0000 0.0011
vn 0.0000 1.0000 0.0000
usemtl Material
s off
f 10/1/1 8/2/1 7/3/1 11/4/1
f 10/5/2 11/6/2 12/7/2 9/8/2
f 7/3/3 8/2/3 6/9/3 5/10/3
f 2/11/4 4/12/4 3/13/4 1/14/4
f 2/11/5 1/14/5 5/15/5 6/16/5
f 3/17/6 4/18/6 9/8/6 12/7/6
f 6/19/7 5/20/7 11/6/7 10/5/7
f 4/18/8 3/17/8 5/20/8 6/19/8
f 11/6/9 5/20/9 3/17/9 12/7/9
f 4/18/10 6/19/10 10/5/10 9/8/10
